<svg version="1.1" id="Layer_1" xmlns="http://www.w3.org/2000/svg" xmlns:xlink="http://www.w3.org/1999/xlink" x="0px" y="0px"
	 width="100%" viewBox="0 0 1200 900" enable-background="new 0 0 1200 900" xml:space="preserve">
<path fill="#000000" opacity="1.000000" stroke="none" 
	d="
M708.000000,901.000000 
	C472.027985,901.000000 236.555984,901.000000 1.041984,901.000000 
	C1.041984,601.063660 1.041984,301.127289 1.041984,1.095468 
	C400.888763,1.095468 800.777588,1.095468 1200.833252,1.095468 
	C1200.833252,300.999939 1200.833252,600.999939 1200.833252,901.000000 
	C1036.793701,901.000000 872.646851,901.000000 708.000000,901.000000 
M506.000061,340.291748 
	C506.667267,349.638824 507.529907,358.976959 507.959686,368.334930 
	C508.771271,386.006165 509.519073,403.685120 509.871002,421.369293 
	C509.960144,425.847351 511.521851,427.170105 515.594971,427.036316 
	C520.344055,426.880341 525.102234,426.999878 529.643372,426.999878 
	C529.643372,434.106262 529.643372,440.508667 529.643372,446.591431 
	C526.671814,447.107269 524.103882,447.565125 521.531799,447.997559 
	C505.076599,450.764069 491.856842,458.481445 484.139923,473.700256 
	C477.470093,486.854095 475.681946,501.346588 475.148834,515.795715 
	C474.516235,532.942200 475.000671,550.130005 475.000977,567.299866 
	C475.001007,568.746033 475.000946,570.192200 475.000946,572.315430 
	C517.623596,572.315430 559.753662,572.315430 602.000000,572.315430 
	C602.000000,566.679626 602.110229,561.003479 601.976318,555.333191 
	C601.722290,544.576843 601.024902,533.822510 601.066040,523.069519 
	C601.122986,508.198456 598.677429,493.835022 592.904785,480.183167 
	C587.670044,467.803711 579.437744,457.805206 566.753662,452.447876 
	C560.740051,449.907867 554.313538,448.345490 547.880920,446.278168 
	C548.384888,439.857941 548.882141,433.522797 549.413513,426.752777 
	C556.055420,426.752777 562.463257,426.752777 568.832825,426.752777 
	C569.657104,392.015533 570.470459,357.737335 571.289246,323.231262 
	C549.186279,323.231262 527.792908,323.231262 505.999969,323.231262 
	C505.999969,328.744843 505.999969,334.036957 506.000061,340.291748 
M549.804016,278.299744 
	C545.083008,277.866516 540.326477,276.849640 535.649170,277.134125 
	C528.256836,277.583679 520.910095,279.509125 516.104370,285.588989 
	C509.230865,294.284851 507.340210,304.736115 506.924408,315.472168 
	C513.171509,316.011780 518.877258,316.853882 524.593323,316.930481 
	C539.575317,317.131317 554.561890,317.014313 569.546509,316.984894 
	C572.643311,316.978790 573.634155,315.824707 572.334290,312.595551 
	C570.593262,308.270630 569.666870,303.618073 567.928772,299.291748 
	C564.415649,290.546875 560.157593,282.301056 549.804016,278.299744 
z"/>
<path fill="#D3D0A3" opacity="1.000000" stroke="none" 
	d="
M506.000000,339.810425 
	C505.999969,334.036957 505.999969,328.744843 505.999969,323.231262 
	C527.792908,323.231262 549.186279,323.231262 571.289246,323.231262 
	C570.470459,357.737335 569.657104,392.015533 568.832825,426.752777 
	C562.463257,426.752777 556.055420,426.752777 549.413513,426.752777 
	C548.882141,433.522797 548.384888,439.857941 547.880920,446.278168 
	C554.313538,448.345490 560.740051,449.907867 566.753662,452.447876 
	C579.437744,457.805206 587.670044,467.803711 592.904785,480.183167 
	C598.677429,493.835022 601.122986,508.198456 601.066040,523.069519 
	C601.024902,533.822510 601.722290,544.576843 601.976318,555.333191 
	C602.110229,561.003479 602.000000,566.679626 602.000000,572.315430 
	C559.753662,572.315430 517.623596,572.315430 475.000946,572.315430 
	C475.000946,570.192200 475.001007,568.746033 475.000977,567.299866 
	C475.000671,550.130005 474.516235,532.942200 475.148834,515.795715 
	C475.681946,501.346588 477.470093,486.854095 484.139923,473.700256 
	C491.856842,458.481445 505.076599,450.764069 521.531799,447.997559 
	C524.103882,447.565125 526.671814,447.107269 529.643372,446.591431 
	C529.643372,440.508667 529.643372,434.106262 529.643372,426.999878 
	C525.102234,426.999878 520.344055,426.880341 515.594971,427.036316 
	C511.521851,427.170105 509.960144,425.847351 509.871002,421.369293 
	C509.519073,403.685120 508.771271,386.006165 507.959686,368.334930 
	C507.529907,358.976959 506.667267,349.638824 506.000000,339.810425 
z"/>
<path fill="#D3D0A3" opacity="1.000000" stroke="none" 
	d="
M550.096130,278.583496 
	C560.157593,282.301056 564.415649,290.546875 567.928772,299.291748 
	C569.666870,303.618073 570.593262,308.270630 572.334290,312.595551 
	C573.634155,315.824707 572.643311,316.978790 569.546509,316.984894 
	C554.561890,317.014313 539.575317,317.131317 524.593323,316.930481 
	C518.877258,316.853882 513.171509,316.011780 506.924408,315.472168 
	C507.340210,304.736115 509.230865,294.284851 516.104370,285.588989 
	C520.910095,279.509125 528.256836,277.583679 535.649170,277.134125 
	C540.326477,276.849640 545.083008,277.866516 550.096130,278.583496 
z"/>
</svg>